<svg xmlns="http://www.w3.org/2000/svg" width="760" height="440" viewBox="0 0 760 440" role="img"><defs><linearGradient id="g0" x1="0" y1="0" x2="1" y2="1"><stop offset="0" stop-color="#6C5CE7"/><stop offset="1" stop-color="#1FD1A0"/></linearGradient><linearGradient id="g1" x1="0" y1="0" x2="1" y2="1"><stop offset="0" stop-color="#FF6B6B"/><stop offset="1" stop-color="#FFA94D"/></linearGradient><linearGradient id="g2" x1="0" y1="0" x2="1" y2="1"><stop offset="0" stop-color="#4DABF7"/><stop offset="1" stop-color="#1864AB"/></linearGradient><linearGradient id="g3" x1="0" y1="0" x2="1" y2="1"><stop offset="0" stop-color="#F783AC"/><stop offset="1" stop-color="#862E9C"/></linearGradient><linearGradient id="g4" x1="0" y1="0" x2="1" y2="1"><stop offset="0" stop-color="#1FD1A0"/><stop offset="1" stop-color="#0CA678"/></linearGradient><linearGradient id="g5" x1="0" y1="0" x2="1" y2="1"><stop offset="0" stop-color="#FFD43B"/><stop offset="1" stop-color="#F08C00"/></linearGradient><linearGradient id="g6" x1="0" y1="0" x2="1" y2="1"><stop offset="0" stop-color="#748FFC"/><stop offset="1" stop-color="#3B5BDB"/></linearGradient><linearGradient id="g7" x1="0" y1="0" x2="1" y2="1"><stop offset="0" stop-color="#FF8787"/><stop offset="1" stop-color="#E03131"/></linearGradient><linearGradient id="g8" x1="0" y1="0" x2="1" y2="1"><stop offset="0" stop-color="#63E6BE"/><stop offset="1" stop-color="#0B7285"/></linearGradient><linearGradient id="g9" x1="0" y1="0" x2="1" y2="1"><stop offset="0" stop-color="#DA77F2"/><stop offset="1" stop-color="#5F3DC4"/></linearGradient><clipPath id="car"><rect x="0" y="0" width="760" height="440" rx="18"/></clipPath></defs><g clip-path="url(#car)"><rect x="0" y="0" width="760" height="440" fill="#0A0A0E"/><rect x="0" y="0" width="72" height="440" fill="#15151C"/><circle cx="36" cy="58" r="20" fill="url(#g0)"/><g transform="translate(36 56) scale(0.9090909090909091)" fill="rgba(255,255,255,0.92)"><ellipse cx="-3" cy="6" rx="4.2" ry="3" transform="rotate(-20 -3 6)"/><rect x="0.6" y="-9" width="1.8" height="15"/><path d="M2.4 -9 q7 1 6 8 q-2 -4 -6 -3 z"/></g><g fill="none" stroke="#6C6C7C" stroke-width="1.7" stroke-linecap="round" stroke-linejoin="round"><g transform="translate(25 116)"><path d="M11 1l9 20-9-5-9 5z"/></g><g transform="translate(25 176)"><path d="M3 5a2 2 0 012-2h12a2 2 0 012 2v9a2 2 0 01-2 2H9l-4 4v-4H5a2 2 0 01-2-2z"/></g><g transform="translate(26 388)"><path d="M9 2L3 9l6 7"/></g></g><text x="102" y="52" font-family="-apple-system, 'Segoe UI', Roboto, sans-serif" font-size="22" font-weight="800" fill="#FFFFFF" text-anchor="start">PrimeBeats</text><text x="102" y="74" font-family="-apple-system, 'Segoe UI', Roboto, sans-serif" font-size="13" font-weight="600" fill="#A0A0B0" text-anchor="start">Songs</text><rect x="102" y="96" width="314" height="52" rx="12" fill="#15151C"/><rect x="110" y="104" width="36" height="36" rx="8" fill="url(#g0)"/><g transform="translate(128 120.56) scale(1.6363636363636365)" fill="rgba(255,255,255,0.92)"><ellipse cx="-3" cy="6" rx="4.2" ry="3" transform="rotate(-20 -3 6)"/><rect x="0.6" y="-9" width="1.8" height="15"/><path d="M2.4 -9 q7 1 6 8 q-2 -4 -6 -3 z"/></g><text x="156" y="120" font-family="-apple-system, 'Segoe UI', Roboto, sans-serif" font-size="13.5" font-weight="600" fill="#FFFFFF" text-anchor="start">Midnight City</text><text x="156" y="136" font-family="-apple-system, 'Segoe UI', Roboto, sans-serif" font-size="11.5" font-weight="400" fill="#A0A0B0" text-anchor="start">M83</text><rect x="428" y="96" width="314" height="52" rx="12" fill="#15151C"/><rect x="436" y="104" width="36" height="36" rx="8" fill="url(#g3)"/><g transform="translate(454 120.56) scale(1.6363636363636365)" fill="rgba(255,255,255,0.92)"><ellipse cx="-3" cy="6" rx="4.2" ry="3" transform="rotate(-20 -3 6)"/><rect x="0.6" y="-9" width="1.8" height="15"/><path d="M2.4 -9 q7 1 6 8 q-2 -4 -6 -3 z"/></g><text x="482" y="120" font-family="-apple-system, 'Segoe UI', Roboto, sans-serif" font-size="13.5" font-weight="600" fill="#FFFFFF" text-anchor="start">Redbone</text><text x="482" y="136" font-family="-apple-system, 'Segoe UI', Roboto, sans-serif" font-size="11.5" font-weight="400" fill="#A0A0B0" text-anchor="start">Childish Gambino</text><rect x="102" y="158" width="314" height="52" rx="12" fill="#15151C"/><rect x="110" y="166" width="36" height="36" rx="8" fill="url(#g9)"/><g transform="translate(128 182.56) scale(1.6363636363636365)" fill="rgba(255,255,255,0.92)"><ellipse cx="-3" cy="6" rx="4.2" ry="3" transform="rotate(-20 -3 6)"/><rect x="0.6" y="-9" width="1.8" height="15"/><path d="M2.4 -9 q7 1 6 8 q-2 -4 -6 -3 z"/></g><text x="156" y="182" font-family="-apple-system, 'Segoe UI', Roboto, sans-serif" font-size="13.5" font-weight="600" fill="#FFFFFF" text-anchor="start">The Less I Know</text><text x="156" y="198" font-family="-apple-system, 'Segoe UI', Roboto, sans-serif" font-size="11.5" font-weight="400" fill="#A0A0B0" text-anchor="start">Tame Impala</text><rect x="428" y="158" width="314" height="52" rx="12" fill="#15151C"/><rect x="436" y="166" width="36" height="36" rx="8" fill="url(#g4)"/><g transform="translate(454 182.56) scale(1.6363636363636365)" fill="rgba(255,255,255,0.92)"><ellipse cx="-3" cy="6" rx="4.2" ry="3" transform="rotate(-20 -3 6)"/><rect x="0.6" y="-9" width="1.8" height="15"/><path d="M2.4 -9 q7 1 6 8 q-2 -4 -6 -3 z"/></g><text x="482" y="182" font-family="-apple-system, 'Segoe UI', Roboto, sans-serif" font-size="13.5" font-weight="600" fill="#FFFFFF" text-anchor="start">Nightcall</text><text x="482" y="198" font-family="-apple-system, 'Segoe UI', Roboto, sans-serif" font-size="11.5" font-weight="400" fill="#A0A0B0" text-anchor="start">Kavinsky</text><rect x="102" y="220" width="314" height="52" rx="12" fill="#15151C"/><rect x="110" y="228" width="36" height="36" rx="8" fill="url(#g2)"/><g transform="translate(128 244.56) scale(1.6363636363636365)" fill="rgba(255,255,255,0.92)"><ellipse cx="-3" cy="6" rx="4.2" ry="3" transform="rotate(-20 -3 6)"/><rect x="0.6" y="-9" width="1.8" height="15"/><path d="M2.4 -9 q7 1 6 8 q-2 -4 -6 -3 z"/></g><text x="156" y="244" font-family="-apple-system, 'Segoe UI', Roboto, sans-serif" font-size="13.5" font-weight="600" fill="#FFFFFF" text-anchor="start">Instant Crush</text><text x="156" y="260" font-family="-apple-system, 'Segoe UI', Roboto, sans-serif" font-size="11.5" font-weight="400" fill="#A0A0B0" text-anchor="start">Daft Punk</text><rect x="428" y="220" width="314" height="52" rx="12" fill="#15151C"/><rect x="436" y="228" width="36" height="36" rx="8" fill="url(#g7)"/><g transform="translate(454 244.56) scale(1.6363636363636365)" fill="rgba(255,255,255,0.92)"><ellipse cx="-3" cy="6" rx="4.2" ry="3" transform="rotate(-20 -3 6)"/><rect x="0.6" y="-9" width="1.8" height="15"/><path d="M2.4 -9 q7 1 6 8 q-2 -4 -6 -3 z"/></g><text x="482" y="244" font-family="-apple-system, 'Segoe UI', Roboto, sans-serif" font-size="13.5" font-weight="600" fill="#FFFFFF" text-anchor="start">Dreams</text><text x="482" y="260" font-family="-apple-system, 'Segoe UI', Roboto, sans-serif" font-size="11.5" font-weight="400" fill="#A0A0B0" text-anchor="start">Fleetwood Mac</text><rect x="72" y="350" width="688" height="90" fill="#1E1E28"/><rect x="102" y="367" width="56" height="56" rx="10" fill="url(#g0)"/><g transform="translate(130 392.76) scale(2.5454545454545454)" fill="rgba(255,255,255,0.92)"><ellipse cx="-3" cy="6" rx="4.2" ry="3" transform="rotate(-20 -3 6)"/><rect x="0.6" y="-9" width="1.8" height="15"/><path d="M2.4 -9 q7 1 6 8 q-2 -4 -6 -3 z"/></g><text x="174" y="388" font-family="-apple-system, 'Segoe UI', Roboto, sans-serif" font-size="16" font-weight="700" fill="#FFFFFF" text-anchor="start">Midnight City</text><text x="174" y="410" font-family="-apple-system, 'Segoe UI', Roboto, sans-serif" font-size="13" font-weight="400" fill="#A0A0B0" text-anchor="start">M83</text><g fill="#FFFFFF" transform="translate(610 386)"><path d="M2 0v18M4 9l13 9V0z"/></g><circle cx="680" cy="395" r="26" fill="#1FD1A0"/><path d="M672 383l18 12-18 12z" fill="#000000"/><g fill="#FFFFFF" transform="translate(730 386)"><path d="M16 0v18M14 9L1 0v18z"/></g><rect x="256" y="294" width="320" height="42" rx="21" fill="#6C5CE7"/><g transform="translate(274 305)" fill="#fff"><rect x="3" y="0" width="8" height="13" rx="4"/><path d="M0 9a7 7 0 0014 0M7 16v4M3 22h8" fill="none" stroke="#fff" stroke-width="1.6" stroke-linecap="round"/></g><text x="428" y="320" font-family="-apple-system, 'Segoe UI', Roboto, sans-serif" font-size="13" font-weight="700" fill="#fff" text-anchor="middle">Play Midnight City from PrimeBeats</text><text x="102" y="24" font-family="-apple-system, 'Segoe UI', Roboto, sans-serif" font-size="12" font-weight="600" fill="#A0A0B0" text-anchor="start">12:30</text></g><rect x="0.7" y="0.7" width="758.6" height="438.6" rx="18" fill="none" stroke="#2A2A36" stroke-width="1.4"/></svg>