<svg xmlns="http://www.w3.org/2000/svg" width="320" height="660" viewBox="0 0 320 660" role="img"><defs><linearGradient id="g0" x1="0" y1="0" x2="1" y2="1"><stop offset="0" stop-color="#6C5CE7"/><stop offset="1" stop-color="#1FD1A0"/></linearGradient><linearGradient id="g1" x1="0" y1="0" x2="1" y2="1"><stop offset="0" stop-color="#FF6B6B"/><stop offset="1" stop-color="#FFA94D"/></linearGradient><linearGradient id="g2" x1="0" y1="0" x2="1" y2="1"><stop offset="0" stop-color="#4DABF7"/><stop offset="1" stop-color="#1864AB"/></linearGradient><linearGradient id="g3" x1="0" y1="0" x2="1" y2="1"><stop offset="0" stop-color="#F783AC"/><stop offset="1" stop-color="#862E9C"/></linearGradient><linearGradient id="g4" x1="0" y1="0" x2="1" y2="1"><stop offset="0" stop-color="#1FD1A0"/><stop offset="1" stop-color="#0CA678"/></linearGradient><linearGradient id="g5" x1="0" y1="0" x2="1" y2="1"><stop offset="0" stop-color="#FFD43B"/><stop offset="1" stop-color="#F08C00"/></linearGradient><linearGradient id="g6" x1="0" y1="0" x2="1" y2="1"><stop offset="0" stop-color="#748FFC"/><stop offset="1" stop-color="#3B5BDB"/></linearGradient><linearGradient id="g7" x1="0" y1="0" x2="1" y2="1"><stop offset="0" stop-color="#FF8787"/><stop offset="1" stop-color="#E03131"/></linearGradient><linearGradient id="g8" x1="0" y1="0" x2="1" y2="1"><stop offset="0" stop-color="#63E6BE"/><stop offset="1" stop-color="#0B7285"/></linearGradient><linearGradient id="g9" x1="0" y1="0" x2="1" y2="1"><stop offset="0" stop-color="#DA77F2"/><stop offset="1" stop-color="#5F3DC4"/></linearGradient><clipPath id="screen"><rect x="0" y="0" width="320" height="660" rx="30"/></clipPath></defs><g clip-path="url(#screen)"><rect x="0" y="0" width="320" height="660" fill="#0B0B0F"/><text x="20" y="30" font-family="-apple-system, 'Segoe UI', Roboto, sans-serif" font-size="13" font-weight="700" fill="#FFFFFF" text-anchor="start">9:41</text><g fill="#FFFFFF" transform="translate(264 22)"><rect x="0" y="2" width="4" height="8" rx="1"/><rect x="6" y="-1" width="4" height="11" rx="1"/><rect x="12" y="-4" width="4" height="14" rx="1"/><rect x="22" y="-3" width="20" height="11" rx="2.5" fill="none" stroke="#FFFFFF" stroke-width="1.4"/><rect x="24" y="-1" width="13" height="7" rx="1.2"/></g><text x="160" y="64" font-family="-apple-system, 'Segoe UI', Roboto, sans-serif" font-size="16" font-weight="700" fill="#FFFFFF" text-anchor="middle">Equalizer</text><g transform="translate(18 52)" fill="#FFFFFF"><path d="M4 8l6-6 1.4 1.4L6.8 8l4.6 4.6L10 14z"/></g><g transform="translate(256 50)"><rect x="0" y="0" width="44" height="24" rx="12" fill="#16A07C"/><circle cx="32" cy="12" r="9" fill="#1FD1A0"/></g><text x="20" y="104" font-family="-apple-system, 'Segoe UI', Roboto, sans-serif" font-size="11" font-weight="700" fill="#A0A0B0" text-anchor="start">PRESETS</text><rect x="16" y="118" width="48" height="30" rx="15" fill="#15151C" stroke="#2A2A36"/><text x="40" y="137" font-family="-apple-system, 'Segoe UI', Roboto, sans-serif" font-size="12" font-weight="600" fill="#FFFFFF" text-anchor="middle">Flat</text><rect x="72" y="118" width="48" height="30" rx="15" fill="#1FD1A0" stroke="#1FD1A0"/><text x="96" y="137" font-family="-apple-system, 'Segoe UI', Roboto, sans-serif" font-size="12" font-weight="600" fill="#000000" text-anchor="middle">Rock</text><rect x="128" y="118" width="40" height="30" rx="15" fill="#15151C" stroke="#2A2A36"/><text x="148" y="137" font-family="-apple-system, 'Segoe UI', Roboto, sans-serif" font-size="12" font-weight="600" fill="#FFFFFF" text-anchor="middle">Pop</text><rect x="176" y="118" width="48" height="30" rx="15" fill="#15151C" stroke="#2A2A36"/><text x="200" y="137" font-family="-apple-system, 'Segoe UI', Roboto, sans-serif" font-size="12" font-weight="600" fill="#FFFFFF" text-anchor="middle">Jazz</text><rect x="232" y="118" width="48" height="30" rx="15" fill="#15151C" stroke="#2A2A36"/><text x="256" y="137" font-family="-apple-system, 'Segoe UI', Roboto, sans-serif" font-size="12" font-weight="600" fill="#FFFFFF" text-anchor="middle">Bass</text><text x="20" y="178" font-family="-apple-system, 'Segoe UI', Roboto, sans-serif" font-size="11" font-weight="700" fill="#A0A0B0" text-anchor="start">BANDS</text><text x="20" y="204" font-family="ui-monospace, 'SF Mono', Menlo, monospace" font-size="11" font-weight="400" fill="#A0A0B0" text-anchor="start">60Hz</text><rect x="64" y="198" width="200" height="4" rx="2" fill="#2A2A36"/><rect x="64" y="198" width="140" height="4" rx="2" fill="#1FD1A0"/><circle cx="204" cy="200" r="7" fill="#1FD1A0"/><text x="300" y="204" font-family="ui-monospace, 'SF Mono', Menlo, monospace" font-size="11" font-weight="700" fill="#FFFFFF" text-anchor="end">+6 dB</text><text x="20" y="246" font-family="ui-monospace, 'SF Mono', Menlo, monospace" font-size="11" font-weight="400" fill="#A0A0B0" text-anchor="start">230Hz</text><rect x="64" y="240" width="200" height="4" rx="2" fill="#2A2A36"/><rect x="64" y="240" width="124" height="4" rx="2" fill="#1FD1A0"/><circle cx="188" cy="242" r="7" fill="#1FD1A0"/><text x="300" y="246" font-family="ui-monospace, 'SF Mono', Menlo, monospace" font-size="11" font-weight="700" fill="#FFFFFF" text-anchor="end">+4 dB</text><text x="20" y="288" font-family="ui-monospace, 'SF Mono', Menlo, monospace" font-size="11" font-weight="400" fill="#A0A0B0" text-anchor="start">910Hz</text><rect x="64" y="282" width="200" height="4" rx="2" fill="#2A2A36"/><rect x="64" y="282" width="100" height="4" rx="2" fill="#1FD1A0"/><circle cx="164" cy="284" r="7" fill="#1FD1A0"/><text x="300" y="288" font-family="ui-monospace, 'SF Mono', Menlo, monospace" font-size="11" font-weight="700" fill="#FFFFFF" text-anchor="end">+0 dB</text><text x="20" y="330" font-family="ui-monospace, 'SF Mono', Menlo, monospace" font-size="11" font-weight="400" fill="#A0A0B0" text-anchor="start">3.6kHz</text><rect x="64" y="324" width="200" height="4" rx="2" fill="#2A2A36"/><rect x="64" y="324" width="115.99999999999999" height="4" rx="2" fill="#1FD1A0"/><circle cx="180" cy="326" r="7" fill="#1FD1A0"/><text x="300" y="330" font-family="ui-monospace, 'SF Mono', Menlo, monospace" font-size="11" font-weight="700" fill="#FFFFFF" text-anchor="end">+2 dB</text><text x="20" y="372" font-family="ui-monospace, 'SF Mono', Menlo, monospace" font-size="11" font-weight="400" fill="#A0A0B0" text-anchor="start">14kHz</text><rect x="64" y="366" width="200" height="4" rx="2" fill="#2A2A36"/><rect x="64" y="366" width="132" height="4" rx="2" fill="#1FD1A0"/><circle cx="196" cy="368" r="7" fill="#1FD1A0"/><text x="300" y="372" font-family="ui-monospace, 'SF Mono', Menlo, monospace" font-size="11" font-weight="700" fill="#FFFFFF" text-anchor="end">+5 dB</text><text x="20" y="414" font-family="-apple-system, 'Segoe UI', Roboto, sans-serif" font-size="11" font-weight="700" fill="#A0A0B0" text-anchor="start">BASS BOOST</text><circle cx="26" cy="428" r="4" fill="#1FD1A0"/><text x="40" y="432" font-family="-apple-system, 'Segoe UI', Roboto, sans-serif" font-size="14" font-weight="600" fill="#FFFFFF" text-anchor="start">Boost</text><g transform="translate(256 416)"><rect x="0" y="0" width="44" height="24" rx="12" fill="#16A07C"/><circle cx="32" cy="12" r="9" fill="#1FD1A0"/></g><rect x="20" y="454" width="236" height="4" rx="2" fill="#2A2A36"/><rect x="20" y="454" width="141.6" height="4" rx="2" fill="#1FD1A0"/><circle cx="161.6" cy="456" r="7" fill="#1FD1A0"/><text x="300" y="460" font-family="ui-monospace, 'SF Mono', Menlo, monospace" font-size="11" font-weight="700" fill="#FFFFFF" text-anchor="end">60%</text></g><rect x="0.6" y="0.6" width="318.8" height="658.8" rx="30" fill="none" stroke="#2A2A36" stroke-width="1.2"/></svg>