<svg xmlns="http://www.w3.org/2000/svg" width="320" height="660" viewBox="0 0 320 660" role="img"><defs><linearGradient id="g0" x1="0" y1="0" x2="1" y2="1"><stop offset="0" stop-color="#6C5CE7"/><stop offset="1" stop-color="#1FD1A0"/></linearGradient><linearGradient id="g1" x1="0" y1="0" x2="1" y2="1"><stop offset="0" stop-color="#FF6B6B"/><stop offset="1" stop-color="#FFA94D"/></linearGradient><linearGradient id="g2" x1="0" y1="0" x2="1" y2="1"><stop offset="0" stop-color="#4DABF7"/><stop offset="1" stop-color="#1864AB"/></linearGradient><linearGradient id="g3" x1="0" y1="0" x2="1" y2="1"><stop offset="0" stop-color="#F783AC"/><stop offset="1" stop-color="#862E9C"/></linearGradient><linearGradient id="g4" x1="0" y1="0" x2="1" y2="1"><stop offset="0" stop-color="#1FD1A0"/><stop offset="1" stop-color="#0CA678"/></linearGradient><linearGradient id="g5" x1="0" y1="0" x2="1" y2="1"><stop offset="0" stop-color="#FFD43B"/><stop offset="1" stop-color="#F08C00"/></linearGradient><linearGradient id="g6" x1="0" y1="0" x2="1" y2="1"><stop offset="0" stop-color="#748FFC"/><stop offset="1" stop-color="#3B5BDB"/></linearGradient><linearGradient id="g7" x1="0" y1="0" x2="1" y2="1"><stop offset="0" stop-color="#FF8787"/><stop offset="1" stop-color="#E03131"/></linearGradient><linearGradient id="g8" x1="0" y1="0" x2="1" y2="1"><stop offset="0" stop-color="#63E6BE"/><stop offset="1" stop-color="#0B7285"/></linearGradient><linearGradient id="g9" x1="0" y1="0" x2="1" y2="1"><stop offset="0" stop-color="#DA77F2"/><stop offset="1" stop-color="#5F3DC4"/></linearGradient><clipPath id="screen"><rect x="0" y="0" width="320" height="660" rx="30"/></clipPath></defs><g clip-path="url(#screen)"><rect x="0" y="0" width="320" height="660" fill="#0B0B0F"/><text x="20" y="30" font-family="-apple-system, 'Segoe UI', Roboto, sans-serif" font-size="13" font-weight="700" fill="#FFFFFF" text-anchor="start">9:41</text><g fill="#FFFFFF" transform="translate(264 22)"><rect x="0" y="2" width="4" height="8" rx="1"/><rect x="6" y="-1" width="4" height="11" rx="1"/><rect x="12" y="-4" width="4" height="14" rx="1"/><rect x="22" y="-3" width="20" height="11" rx="2.5" fill="none" stroke="#FFFFFF" stroke-width="1.4"/><rect x="24" y="-1" width="13" height="7" rx="1.2"/></g><text x="20" y="70" font-family="-apple-system, 'Segoe UI', Roboto, sans-serif" font-size="24" font-weight="800" fill="#FFFFFF" text-anchor="start">PrimeBeats</text><g transform="translate(276 52)" fill="#A0A0B0"><path d="M9 3a6 6 0 104 10l4 4 1.4-1.4-4-4A6 6 0 009 3zm0 2a4 4 0 110 8 4 4 0 010-8z"/></g><rect x="16" y="86" width="288" height="38" rx="12" fill="#15151C"/><g transform="translate(30 99)" fill="#6C6C7C"><path d="M6 2a5 5 0 103 9l3 3 1-1-3-3A5 5 0 006 2z"/></g><text x="50" y="110" font-family="-apple-system, 'Segoe UI', Roboto, sans-serif" font-size="12.5" font-weight="400" fill="#6C6C7C" text-anchor="start">Search songs, artists, albums</text><text x="20" y="150" font-family="-apple-system, 'Segoe UI', Roboto, sans-serif" font-size="13" font-weight="700" fill="#A0A0B0" text-anchor="start">Songs</text><rect x="16" y="168" width="40" height="40" rx="8" fill="url(#g0)"/><g transform="translate(36 186.4) scale(1.8181818181818181)" fill="rgba(255,255,255,0.92)"><ellipse cx="-3" cy="6" rx="4.2" ry="3" transform="rotate(-20 -3 6)"/><rect x="0.6" y="-9" width="1.8" height="15"/><path d="M2.4 -9 q7 1 6 8 q-2 -4 -6 -3 z"/></g><text x="68" y="185" font-family="-apple-system, 'Segoe UI', Roboto, sans-serif" font-size="13.5" font-weight="600" fill="#FFFFFF" text-anchor="start">Midnight City</text><text x="68" y="202" font-family="-apple-system, 'Segoe UI', Roboto, sans-serif" font-size="11.5" font-weight="400" fill="#A0A0B0" text-anchor="start">M83</text><rect x="16" y="224" width="40" height="40" rx="8" fill="url(#g3)"/><g transform="translate(36 242.4) scale(1.8181818181818181)" fill="rgba(255,255,255,0.92)"><ellipse cx="-3" cy="6" rx="4.2" ry="3" transform="rotate(-20 -3 6)"/><rect x="0.6" y="-9" width="1.8" height="15"/><path d="M2.4 -9 q7 1 6 8 q-2 -4 -6 -3 z"/></g><text x="68" y="241" font-family="-apple-system, 'Segoe UI', Roboto, sans-serif" font-size="13.5" font-weight="600" fill="#FFFFFF" text-anchor="start">Redbone</text><text x="68" y="258" font-family="-apple-system, 'Segoe UI', Roboto, sans-serif" font-size="11.5" font-weight="400" fill="#A0A0B0" text-anchor="start">Childish Gambino</text><rect x="16" y="280" width="40" height="40" rx="8" fill="url(#g2)"/><g transform="translate(36 298.4) scale(1.8181818181818181)" fill="rgba(255,255,255,0.92)"><ellipse cx="-3" cy="6" rx="4.2" ry="3" transform="rotate(-20 -3 6)"/><rect x="0.6" y="-9" width="1.8" height="15"/><path d="M2.4 -9 q7 1 6 8 q-2 -4 -6 -3 z"/></g><text x="68" y="297" font-family="-apple-system, 'Segoe UI', Roboto, sans-serif" font-size="13.5" font-weight="600" fill="#FFFFFF" text-anchor="start">Instant Crush</text><text x="68" y="314" font-family="-apple-system, 'Segoe UI', Roboto, sans-serif" font-size="11.5" font-weight="400" fill="#A0A0B0" text-anchor="start">Daft Punk</text><rect x="16" y="336" width="40" height="40" rx="8" fill="url(#g9)"/><g transform="translate(36 354.4) scale(1.8181818181818181)" fill="rgba(255,255,255,0.92)"><ellipse cx="-3" cy="6" rx="4.2" ry="3" transform="rotate(-20 -3 6)"/><rect x="0.6" y="-9" width="1.8" height="15"/><path d="M2.4 -9 q7 1 6 8 q-2 -4 -6 -3 z"/></g><text x="68" y="353" font-family="-apple-system, 'Segoe UI', Roboto, sans-serif" font-size="13.5" font-weight="600" fill="#FFFFFF" text-anchor="start">The Less I Know</text><text x="68" y="370" font-family="-apple-system, 'Segoe UI', Roboto, sans-serif" font-size="11.5" font-weight="400" fill="#A0A0B0" text-anchor="start">Tame Impala</text><rect x="16" y="392" width="40" height="40" rx="8" fill="url(#g4)"/><g transform="translate(36 410.4) scale(1.8181818181818181)" fill="rgba(255,255,255,0.92)"><ellipse cx="-3" cy="6" rx="4.2" ry="3" transform="rotate(-20 -3 6)"/><rect x="0.6" y="-9" width="1.8" height="15"/><path d="M2.4 -9 q7 1 6 8 q-2 -4 -6 -3 z"/></g><text x="68" y="409" font-family="-apple-system, 'Segoe UI', Roboto, sans-serif" font-size="13.5" font-weight="600" fill="#FFFFFF" text-anchor="start">Nightcall</text><text x="68" y="426" font-family="-apple-system, 'Segoe UI', Roboto, sans-serif" font-size="11.5" font-weight="400" fill="#A0A0B0" text-anchor="start">Kavinsky</text><rect x="16" y="448" width="40" height="40" rx="8" fill="url(#g7)"/><g transform="translate(36 466.4) scale(1.8181818181818181)" fill="rgba(255,255,255,0.92)"><ellipse cx="-3" cy="6" rx="4.2" ry="3" transform="rotate(-20 -3 6)"/><rect x="0.6" y="-9" width="1.8" height="15"/><path d="M2.4 -9 q7 1 6 8 q-2 -4 -6 -3 z"/></g><text x="68" y="465" font-family="-apple-system, 'Segoe UI', Roboto, sans-serif" font-size="13.5" font-weight="600" fill="#FFFFFF" text-anchor="start">Dreams</text><text x="68" y="482" font-family="-apple-system, 'Segoe UI', Roboto, sans-serif" font-size="11.5" font-weight="400" fill="#A0A0B0" text-anchor="start">Fleetwood Mac</text><rect x="8" y="540" width="304" height="52" rx="14" fill="#1E1E28"/><rect x="16" y="546" width="40" height="40" rx="8" fill="url(#g0)"/><g transform="translate(36 564.4) scale(1.8181818181818181)" fill="rgba(255,255,255,0.92)"><ellipse cx="-3" cy="6" rx="4.2" ry="3" transform="rotate(-20 -3 6)"/><rect x="0.6" y="-9" width="1.8" height="15"/><path d="M2.4 -9 q7 1 6 8 q-2 -4 -6 -3 z"/></g><text x="66" y="563" font-family="-apple-system, 'Segoe UI', Roboto, sans-serif" font-size="12.5" font-weight="600" fill="#FFFFFF" text-anchor="start">Midnight City</text><text x="66" y="579" font-family="-apple-system, 'Segoe UI', Roboto, sans-serif" font-size="11" font-weight="400" fill="#A0A0B0" text-anchor="start">M83</text><circle cx="284" cy="566" r="15" fill="#1FD1A0"/><g fill="#000000"><rect x="279" y="560" width="3.4" height="12" rx="1"/><rect x="286" y="560" width="3.4" height="12" rx="1"/></g><rect x="0" y="596" width="320" height="64" fill="#15151C"/><rect x="0" y="596" width="320" height="1" fill="#2A2A36"/><g transform="translate(22 608)" fill="#6C6C7C"><path d="M3 10l7-6 7 6v8H3z"/></g><text x="32" y="638" font-family="-apple-system, 'Segoe UI', Roboto, sans-serif" font-size="9.5" font-weight="600" fill="#6C6C7C" text-anchor="middle">Home</text><g transform="translate(86 608)" fill="#1FD1A0"><path d="M6 4h11v2H6zM6 9h11v2H6zM6 14h7v2H6z"/></g><text x="96" y="638" font-family="-apple-system, 'Segoe UI', Roboto, sans-serif" font-size="9.5" font-weight="600" fill="#1FD1A0" text-anchor="middle">Songs</text><g transform="translate(150 608)" fill="#6C6C7C"><path d="M10 3a7 7 0 100 14 7 7 0 000-14zm0 5a2 2 0 110 4 2 2 0 010-4z"/></g><text x="160" y="638" font-family="-apple-system, 'Segoe UI', Roboto, sans-serif" font-size="9.5" font-weight="600" fill="#6C6C7C" text-anchor="middle">Albums</text><g transform="translate(214 608)" fill="#6C6C7C"><path d="M4 4h12v2H4zM4 9h12v2H4zM4 14h8v2H4z"/></g><text x="224" y="638" font-family="-apple-system, 'Segoe UI', Roboto, sans-serif" font-size="9.5" font-weight="600" fill="#6C6C7C" text-anchor="middle">Playlists</text><g transform="translate(278 608)" fill="#6C6C7C"><path d="M9 3a6 6 0 104 10l4 4 1-1-4-4A6 6 0 009 3z"/></g><text x="288" y="638" font-family="-apple-system, 'Segoe UI', Roboto, sans-serif" font-size="9.5" font-weight="600" fill="#6C6C7C" text-anchor="middle">Search</text></g><rect x="0.6" y="0.6" width="318.8" height="658.8" rx="30" fill="none" stroke="#2A2A36" stroke-width="1.2"/></svg>