<svg xmlns="http://www.w3.org/2000/svg" width="320" height="660" viewBox="0 0 320 660" role="img"><defs><linearGradient id="g0" x1="0" y1="0" x2="1" y2="1"><stop offset="0" stop-color="#6C5CE7"/><stop offset="1" stop-color="#1FD1A0"/></linearGradient><linearGradient id="g1" x1="0" y1="0" x2="1" y2="1"><stop offset="0" stop-color="#FF6B6B"/><stop offset="1" stop-color="#FFA94D"/></linearGradient><linearGradient id="g2" x1="0" y1="0" x2="1" y2="1"><stop offset="0" stop-color="#4DABF7"/><stop offset="1" stop-color="#1864AB"/></linearGradient><linearGradient id="g3" x1="0" y1="0" x2="1" y2="1"><stop offset="0" stop-color="#F783AC"/><stop offset="1" stop-color="#862E9C"/></linearGradient><linearGradient id="g4" x1="0" y1="0" x2="1" y2="1"><stop offset="0" stop-color="#1FD1A0"/><stop offset="1" stop-color="#0CA678"/></linearGradient><linearGradient id="g5" x1="0" y1="0" x2="1" y2="1"><stop offset="0" stop-color="#FFD43B"/><stop offset="1" stop-color="#F08C00"/></linearGradient><linearGradient id="g6" x1="0" y1="0" x2="1" y2="1"><stop offset="0" stop-color="#748FFC"/><stop offset="1" stop-color="#3B5BDB"/></linearGradient><linearGradient id="g7" x1="0" y1="0" x2="1" y2="1"><stop offset="0" stop-color="#FF8787"/><stop offset="1" stop-color="#E03131"/></linearGradient><linearGradient id="g8" x1="0" y1="0" x2="1" y2="1"><stop offset="0" stop-color="#63E6BE"/><stop offset="1" stop-color="#0B7285"/></linearGradient><linearGradient id="g9" x1="0" y1="0" x2="1" y2="1"><stop offset="0" stop-color="#DA77F2"/><stop offset="1" stop-color="#5F3DC4"/></linearGradient><clipPath id="screen"><rect x="0" y="0" width="320" height="660" rx="30"/></clipPath></defs><g clip-path="url(#screen)"><rect x="0" y="0" width="320" height="660" fill="#0B0B0F"/><text x="20" y="30" font-family="-apple-system, 'Segoe UI', Roboto, sans-serif" font-size="13" font-weight="700" fill="#FFFFFF" text-anchor="start">9:41</text><g fill="#FFFFFF" transform="translate(264 22)"><rect x="0" y="2" width="4" height="8" rx="1"/><rect x="6" y="-1" width="4" height="11" rx="1"/><rect x="12" y="-4" width="4" height="14" rx="1"/><rect x="22" y="-3" width="20" height="11" rx="2.5" fill="none" stroke="#FFFFFF" stroke-width="1.4"/><rect x="24" y="-1" width="13" height="7" rx="1.2"/></g><text x="160" y="64" font-family="-apple-system, 'Segoe UI', Roboto, sans-serif" font-size="16" font-weight="700" fill="#FFFFFF" text-anchor="middle">Now Playing</text><g transform="translate(18 52)" fill="#FFFFFF"><path d="M4 8l6-6 1.4 1.4L6.8 8l4.6 4.6L10 14z"/></g><g fill="#FFFFFF" transform="translate(224 56)"><path d="M6 10c-3-2-5-4-5-6a2.4 2.4 0 014.4-1.3A2.4 2.4 0 0110 4c0 2-2 4-4 6z" fill="#1FD1A0"/><rect x="22" y="2.4" width="9" height="1.8" rx="1"/><rect x="25.6" y="-1.2" width="1.8" height="9" rx="1"/><g transform="translate(44 -1)"><rect x="0" y="0" width="2" height="10" rx="1"/><rect x="4" y="2" width="2" height="8" rx="1"/><rect x="8" y="4" width="2" height="6" rx="1"/></g><g transform="translate(66 0)"><rect x="0" y="1" width="11" height="1.7" rx="1"/><rect x="0" y="5" width="11" height="1.7" rx="1"/><rect x="0" y="9" width="8" height="1.7" rx="1"/></g></g><rect x="45" y="96" width="230" height="230" rx="20" fill="url(#g0)"/><g transform="translate(160 203) scale(10.454545454545455)" fill="rgba(255,255,255,0.92)"><ellipse cx="-3" cy="6" rx="4.2" ry="3" transform="rotate(-20 -3 6)"/><rect x="0.6" y="-9" width="1.8" height="15"/><path d="M2.4 -9 q7 1 6 8 q-2 -4 -6 -3 z"/></g><g transform="translate(197 191)"><rect x="0" y="0" width="62" height="40" rx="20" fill="rgba(0,0,0,0.55)"/><g transform="translate(14 14)" fill="#FFFFFF"><path d="M0 0l6 6-6 6z"/><path d="M7 0l6 6-6 6z"/></g><text x="40" y="26" font-family="-apple-system, 'Segoe UI', Roboto, sans-serif" font-size="13" font-weight="800" fill="#FFFFFF" text-anchor="middle">+4s</text></g><text x="160" y="362" font-family="-apple-system, 'Segoe UI', Roboto, sans-serif" font-size="21" font-weight="800" fill="#FFFFFF" text-anchor="middle">Midnight City</text><text x="160" y="384" font-family="-apple-system, 'Segoe UI', Roboto, sans-serif" font-size="14" font-weight="400" fill="#A0A0B0" text-anchor="middle">M83</text><rect x="80" y="404" width="160" height="34" rx="17" fill="none" stroke="#1FD1A0" stroke-width="1.3"/><text x="168" y="426" font-family="-apple-system, 'Segoe UI', Roboto, sans-serif" font-size="12.5" font-weight="700" fill="#1FD1A0" text-anchor="middle">Start Smart Radio</text><rect x="24" y="462" width="272" height="4" rx="2" fill="#2A2A36"/><rect x="24" y="462" width="120" height="4" rx="2" fill="#1FD1A0"/><circle cx="144" cy="464" r="7" fill="#1FD1A0"/><g transform="translate(120 428)"><rect x="0" y="0" width="48" height="22" rx="6" fill="#1FD1A0"/><text x="24" y="15" font-family="-apple-system, 'Segoe UI', Roboto, sans-serif" font-size="12" font-weight="800" fill="#000000" text-anchor="middle">1:23</text><path d="M18 22l6 6 6-6z" fill="#1FD1A0"/></g><text x="24" y="484" font-family="ui-monospace, 'SF Mono', Menlo, monospace" font-size="10.5" font-weight="400" fill="#A0A0B0" text-anchor="start">1:23</text><text x="296" y="484" font-family="ui-monospace, 'SF Mono', Menlo, monospace" font-size="10.5" font-weight="400" fill="#A0A0B0" text-anchor="end">4:03</text><g fill="none" stroke="#A0A0B0" stroke-width="1.6" stroke-linecap="round" stroke-linejoin="round" transform="translate(30 514)"><path d="M0 2h3l11 12h4M14 12l4 2-4 2M0 14h3l4-4M11 4l3-2-3-2"/></g><g fill="#FFFFFF" transform="translate(86 513)"><path d="M2 0v18M4 9l13 9V0z"/></g><circle cx="160" cy="522" r="30" fill="#1FD1A0"/><path d="M152 510l20 12-20 12z" fill="#000000"/><g fill="#FFFFFF" transform="translate(214 513)"><path d="M16 0v18M14 9L1 0v18z"/></g><g fill="none" stroke="#A0A0B0" stroke-width="1.6" stroke-linecap="round" stroke-linejoin="round" transform="translate(266 514)"><path d="M3 6a3 3 0 013-3h9l-3-3M17 12a3 3 0 01-3 3H5l3 3"/></g></g><rect x="0.6" y="0.6" width="318.8" height="658.8" rx="30" fill="none" stroke="#2A2A36" stroke-width="1.2"/></svg>