<svg xmlns="http://www.w3.org/2000/svg" width="320" height="660" viewBox="0 0 320 660" role="img"><defs><linearGradient id="g0" x1="0" y1="0" x2="1" y2="1"><stop offset="0" stop-color="#6C5CE7"/><stop offset="1" stop-color="#1FD1A0"/></linearGradient><linearGradient id="g1" x1="0" y1="0" x2="1" y2="1"><stop offset="0" stop-color="#FF6B6B"/><stop offset="1" stop-color="#FFA94D"/></linearGradient><linearGradient id="g2" x1="0" y1="0" x2="1" y2="1"><stop offset="0" stop-color="#4DABF7"/><stop offset="1" stop-color="#1864AB"/></linearGradient><linearGradient id="g3" x1="0" y1="0" x2="1" y2="1"><stop offset="0" stop-color="#F783AC"/><stop offset="1" stop-color="#862E9C"/></linearGradient><linearGradient id="g4" x1="0" y1="0" x2="1" y2="1"><stop offset="0" stop-color="#1FD1A0"/><stop offset="1" stop-color="#0CA678"/></linearGradient><linearGradient id="g5" x1="0" y1="0" x2="1" y2="1"><stop offset="0" stop-color="#FFD43B"/><stop offset="1" stop-color="#F08C00"/></linearGradient><linearGradient id="g6" x1="0" y1="0" x2="1" y2="1"><stop offset="0" stop-color="#748FFC"/><stop offset="1" stop-color="#3B5BDB"/></linearGradient><linearGradient id="g7" x1="0" y1="0" x2="1" y2="1"><stop offset="0" stop-color="#FF8787"/><stop offset="1" stop-color="#E03131"/></linearGradient><linearGradient id="g8" x1="0" y1="0" x2="1" y2="1"><stop offset="0" stop-color="#63E6BE"/><stop offset="1" stop-color="#0B7285"/></linearGradient><linearGradient id="g9" x1="0" y1="0" x2="1" y2="1"><stop offset="0" stop-color="#DA77F2"/><stop offset="1" stop-color="#5F3DC4"/></linearGradient><clipPath id="screen"><rect x="0" y="0" width="320" height="660" rx="30"/></clipPath></defs><g clip-path="url(#screen)"><rect x="0" y="0" width="320" height="660" fill="#0B0B0F"/><text x="20" y="30" font-family="-apple-system, 'Segoe UI', Roboto, sans-serif" font-size="13" font-weight="700" fill="#FFFFFF" text-anchor="start">9:41</text><g fill="#FFFFFF" transform="translate(264 22)"><rect x="0" y="2" width="4" height="8" rx="1"/><rect x="6" y="-1" width="4" height="11" rx="1"/><rect x="12" y="-4" width="4" height="14" rx="1"/><rect x="22" y="-3" width="20" height="11" rx="2.5" fill="none" stroke="#FFFFFF" stroke-width="1.4"/><rect x="24" y="-1" width="13" height="7" rx="1.2"/></g><text x="20" y="70" font-family="-apple-system, 'Segoe UI', Roboto, sans-serif" font-size="24" font-weight="800" fill="#FFFFFF" text-anchor="start">Playlists</text><rect x="16" y="92" width="288" height="64" rx="16" fill="#15151C"/><rect x="28" y="104" width="40" height="40" rx="10" fill="url(#g4)"/><g transform="translate(48 122.4) scale(1.8181818181818181)" fill="rgba(255,255,255,0.92)"><ellipse cx="-3" cy="6" rx="4.2" ry="3" transform="rotate(-20 -3 6)"/><rect x="0.6" y="-9" width="1.8" height="15"/><path d="M2.4 -9 q7 1 6 8 q-2 -4 -6 -3 z"/></g><text x="84" y="122" font-family="-apple-system, 'Segoe UI', Roboto, sans-serif" font-size="15" font-weight="700" fill="#FFFFFF" text-anchor="start">Most Played</text><text x="84" y="140" font-family="-apple-system, 'Segoe UI', Roboto, sans-serif" font-size="11.5" font-weight="400" fill="#A0A0B0" text-anchor="start">Smart playlist</text><g transform="translate(280 118)"><path d="M0 0l8 6-8 6z" fill="#1FD1A0"/></g><rect x="16" y="168" width="288" height="64" rx="16" fill="#15151C"/><rect x="28" y="180" width="40" height="40" rx="10" fill="url(#g2)"/><g transform="translate(48 198.4) scale(1.8181818181818181)" fill="rgba(255,255,255,0.92)"><ellipse cx="-3" cy="6" rx="4.2" ry="3" transform="rotate(-20 -3 6)"/><rect x="0.6" y="-9" width="1.8" height="15"/><path d="M2.4 -9 q7 1 6 8 q-2 -4 -6 -3 z"/></g><text x="84" y="198" font-family="-apple-system, 'Segoe UI', Roboto, sans-serif" font-size="15" font-weight="700" fill="#FFFFFF" text-anchor="start">Recently Played</text><text x="84" y="216" font-family="-apple-system, 'Segoe UI', Roboto, sans-serif" font-size="11.5" font-weight="400" fill="#A0A0B0" text-anchor="start">Smart playlist</text><g transform="translate(280 194)"><path d="M0 0l8 6-8 6z" fill="#1FD1A0"/></g><rect x="16" y="244" width="288" height="64" rx="16" fill="#15151C"/><rect x="28" y="256" width="40" height="40" rx="10" fill="url(#g9)"/><g transform="translate(48 274.4) scale(1.8181818181818181)" fill="rgba(255,255,255,0.92)"><ellipse cx="-3" cy="6" rx="4.2" ry="3" transform="rotate(-20 -3 6)"/><rect x="0.6" y="-9" width="1.8" height="15"/><path d="M2.4 -9 q7 1 6 8 q-2 -4 -6 -3 z"/></g><text x="84" y="274" font-family="-apple-system, 'Segoe UI', Roboto, sans-serif" font-size="15" font-weight="700" fill="#FFFFFF" text-anchor="start">Made for You</text><text x="84" y="292" font-family="-apple-system, 'Segoe UI', Roboto, sans-serif" font-size="11.5" font-weight="400" fill="#A0A0B0" text-anchor="start">Smart playlist</text><g transform="translate(280 270)"><path d="M0 0l8 6-8 6z" fill="#1FD1A0"/></g><text x="20" y="342" font-family="-apple-system, 'Segoe UI', Roboto, sans-serif" font-size="11" font-weight="700" fill="#A0A0B0" text-anchor="start">YOUR PLAYLISTS</text><rect x="16" y="358" width="40" height="40" rx="8" fill="url(#g7)"/><g transform="translate(36 376.4) scale(1.8181818181818181)" fill="rgba(255,255,255,0.92)"><ellipse cx="-3" cy="6" rx="4.2" ry="3" transform="rotate(-20 -3 6)"/><rect x="0.6" y="-9" width="1.8" height="15"/><path d="M2.4 -9 q7 1 6 8 q-2 -4 -6 -3 z"/></g><text x="68" y="375" font-family="-apple-system, 'Segoe UI', Roboto, sans-serif" font-size="13.5" font-weight="600" fill="#FFFFFF" text-anchor="start">Late Night Drive</text><text x="68" y="392" font-family="-apple-system, 'Segoe UI', Roboto, sans-serif" font-size="11.5" font-weight="400" fill="#A0A0B0" text-anchor="start">24 songs</text><rect x="16" y="414" width="40" height="40" rx="8" fill="url(#g5)"/><g transform="translate(36 432.4) scale(1.8181818181818181)" fill="rgba(255,255,255,0.92)"><ellipse cx="-3" cy="6" rx="4.2" ry="3" transform="rotate(-20 -3 6)"/><rect x="0.6" y="-9" width="1.8" height="15"/><path d="M2.4 -9 q7 1 6 8 q-2 -4 -6 -3 z"/></g><text x="68" y="431" font-family="-apple-system, 'Segoe UI', Roboto, sans-serif" font-size="13.5" font-weight="600" fill="#FFFFFF" text-anchor="start">Focus Flow</text><text x="68" y="448" font-family="-apple-system, 'Segoe UI', Roboto, sans-serif" font-size="11.5" font-weight="400" fill="#A0A0B0" text-anchor="start">18 songs</text><rect x="16" y="470" width="40" height="40" rx="8" fill="url(#g3)"/><g transform="translate(36 488.4) scale(1.8181818181818181)" fill="rgba(255,255,255,0.92)"><ellipse cx="-3" cy="6" rx="4.2" ry="3" transform="rotate(-20 -3 6)"/><rect x="0.6" y="-9" width="1.8" height="15"/><path d="M2.4 -9 q7 1 6 8 q-2 -4 -6 -3 z"/></g><text x="68" y="487" font-family="-apple-system, 'Segoe UI', Roboto, sans-serif" font-size="13.5" font-weight="600" fill="#FFFFFF" text-anchor="start">Throwbacks</text><text x="68" y="504" font-family="-apple-system, 'Segoe UI', Roboto, sans-serif" font-size="11.5" font-weight="400" fill="#A0A0B0" text-anchor="start">52 songs</text><rect x="0" y="596" width="320" height="64" fill="#15151C"/><rect x="0" y="596" width="320" height="1" fill="#2A2A36"/><g transform="translate(22 608)" fill="#6C6C7C"><path d="M3 10l7-6 7 6v8H3z"/></g><text x="32" y="638" font-family="-apple-system, 'Segoe UI', Roboto, sans-serif" font-size="9.5" font-weight="600" fill="#6C6C7C" text-anchor="middle">Home</text><g transform="translate(86 608)" fill="#6C6C7C"><path d="M6 4h11v2H6zM6 9h11v2H6zM6 14h7v2H6z"/></g><text x="96" y="638" font-family="-apple-system, 'Segoe UI', Roboto, sans-serif" font-size="9.5" font-weight="600" fill="#6C6C7C" text-anchor="middle">Songs</text><g transform="translate(150 608)" fill="#6C6C7C"><path d="M10 3a7 7 0 100 14 7 7 0 000-14zm0 5a2 2 0 110 4 2 2 0 010-4z"/></g><text x="160" y="638" font-family="-apple-system, 'Segoe UI', Roboto, sans-serif" font-size="9.5" font-weight="600" fill="#6C6C7C" text-anchor="middle">Albums</text><g transform="translate(214 608)" fill="#1FD1A0"><path d="M4 4h12v2H4zM4 9h12v2H4zM4 14h8v2H4z"/></g><text x="224" y="638" font-family="-apple-system, 'Segoe UI', Roboto, sans-serif" font-size="9.5" font-weight="600" fill="#1FD1A0" text-anchor="middle">Playlists</text><g transform="translate(278 608)" fill="#6C6C7C"><path d="M9 3a6 6 0 104 10l4 4 1-1-4-4A6 6 0 009 3z"/></g><text x="288" y="638" font-family="-apple-system, 'Segoe UI', Roboto, sans-serif" font-size="9.5" font-weight="600" fill="#6C6C7C" text-anchor="middle">Search</text></g><rect x="0.6" y="0.6" width="318.8" height="658.8" rx="30" fill="none" stroke="#2A2A36" stroke-width="1.2"/></svg>