<svg xmlns="http://www.w3.org/2000/svg" width="320" height="660" viewBox="0 0 320 660" role="img"><defs><linearGradient id="g0" x1="0" y1="0" x2="1" y2="1"><stop offset="0" stop-color="#6C5CE7"/><stop offset="1" stop-color="#1FD1A0"/></linearGradient><linearGradient id="g1" x1="0" y1="0" x2="1" y2="1"><stop offset="0" stop-color="#FF6B6B"/><stop offset="1" stop-color="#FFA94D"/></linearGradient><linearGradient id="g2" x1="0" y1="0" x2="1" y2="1"><stop offset="0" stop-color="#4DABF7"/><stop offset="1" stop-color="#1864AB"/></linearGradient><linearGradient id="g3" x1="0" y1="0" x2="1" y2="1"><stop offset="0" stop-color="#F783AC"/><stop offset="1" stop-color="#862E9C"/></linearGradient><linearGradient id="g4" x1="0" y1="0" x2="1" y2="1"><stop offset="0" stop-color="#1FD1A0"/><stop offset="1" stop-color="#0CA678"/></linearGradient><linearGradient id="g5" x1="0" y1="0" x2="1" y2="1"><stop offset="0" stop-color="#FFD43B"/><stop offset="1" stop-color="#F08C00"/></linearGradient><linearGradient id="g6" x1="0" y1="0" x2="1" y2="1"><stop offset="0" stop-color="#748FFC"/><stop offset="1" stop-color="#3B5BDB"/></linearGradient><linearGradient id="g7" x1="0" y1="0" x2="1" y2="1"><stop offset="0" stop-color="#FF8787"/><stop offset="1" stop-color="#E03131"/></linearGradient><linearGradient id="g8" x1="0" y1="0" x2="1" y2="1"><stop offset="0" stop-color="#63E6BE"/><stop offset="1" stop-color="#0B7285"/></linearGradient><linearGradient id="g9" x1="0" y1="0" x2="1" y2="1"><stop offset="0" stop-color="#DA77F2"/><stop offset="1" stop-color="#5F3DC4"/></linearGradient><clipPath id="screen"><rect x="0" y="0" width="320" height="660" rx="30"/></clipPath></defs><g clip-path="url(#screen)"><rect x="0" y="0" width="320" height="660" fill="#0B0B0F"/><text x="20" y="30" font-family="-apple-system, 'Segoe UI', Roboto, sans-serif" font-size="13" font-weight="700" fill="#FFFFFF" text-anchor="start">9:41</text><g fill="#FFFFFF" transform="translate(264 22)"><rect x="0" y="2" width="4" height="8" rx="1"/><rect x="6" y="-1" width="4" height="11" rx="1"/><rect x="12" y="-4" width="4" height="14" rx="1"/><rect x="22" y="-3" width="20" height="11" rx="2.5" fill="none" stroke="#FFFFFF" stroke-width="1.4"/><rect x="24" y="-1" width="13" height="7" rx="1.2"/></g><text x="160" y="64" font-family="-apple-system, 'Segoe UI', Roboto, sans-serif" font-size="16" font-weight="700" fill="#FFFFFF" text-anchor="middle">Share music</text><g transform="translate(18 52)" fill="#FFFFFF"><path d="M4 8l6-6 1.4 1.4L6.8 8l4.6 4.6L10 14z"/></g><text x="302" y="64" font-family="-apple-system, 'Segoe UI', Roboto, sans-serif" font-size="13.5" font-weight="700" fill="#1FD1A0" text-anchor="end">Clear</text><text x="20" y="96" font-family="-apple-system, 'Segoe UI', Roboto, sans-serif" font-size="12" font-weight="400" fill="#A0A0B0" text-anchor="start">Select songs to send to another PrimeBeats</text><text x="20" y="112" font-family="-apple-system, 'Segoe UI', Roboto, sans-serif" font-size="12" font-weight="400" fill="#A0A0B0" text-anchor="start">user — via your phone’s share sheet.</text><rect x="16" y="138" width="44" height="44" rx="8" fill="url(#g0)"/><g transform="translate(38 158.24) scale(2)" fill="rgba(255,255,255,0.92)"><ellipse cx="-3" cy="6" rx="4.2" ry="3" transform="rotate(-20 -3 6)"/><rect x="0.6" y="-9" width="1.8" height="15"/><path d="M2.4 -9 q7 1 6 8 q-2 -4 -6 -3 z"/></g><text x="72" y="156" font-family="-apple-system, 'Segoe UI', Roboto, sans-serif" font-size="14" font-weight="600" fill="#FFFFFF" text-anchor="start">Midnight City</text><text x="72" y="173" font-family="-apple-system, 'Segoe UI', Roboto, sans-serif" font-size="12" font-weight="400" fill="#A0A0B0" text-anchor="start">M83</text><circle cx="288" cy="160" r="11" fill="#1FD1A0"/><path d="M283 160l3 3 6-6" stroke="#000000" stroke-width="2" fill="none" stroke-linecap="round" stroke-linejoin="round"/><rect x="16" y="194" width="44" height="44" rx="8" fill="url(#g3)"/><g transform="translate(38 214.24) scale(2)" fill="rgba(255,255,255,0.92)"><ellipse cx="-3" cy="6" rx="4.2" ry="3" transform="rotate(-20 -3 6)"/><rect x="0.6" y="-9" width="1.8" height="15"/><path d="M2.4 -9 q7 1 6 8 q-2 -4 -6 -3 z"/></g><text x="72" y="212" font-family="-apple-system, 'Segoe UI', Roboto, sans-serif" font-size="14" font-weight="600" fill="#FFFFFF" text-anchor="start">Redbone</text><text x="72" y="229" font-family="-apple-system, 'Segoe UI', Roboto, sans-serif" font-size="12" font-weight="400" fill="#A0A0B0" text-anchor="start">Childish Gambino</text><circle cx="288" cy="216" r="11" fill="#1FD1A0"/><path d="M283 216l3 3 6-6" stroke="#000000" stroke-width="2" fill="none" stroke-linecap="round" stroke-linejoin="round"/><rect x="16" y="250" width="44" height="44" rx="8" fill="url(#g2)"/><g transform="translate(38 270.24) scale(2)" fill="rgba(255,255,255,0.92)"><ellipse cx="-3" cy="6" rx="4.2" ry="3" transform="rotate(-20 -3 6)"/><rect x="0.6" y="-9" width="1.8" height="15"/><path d="M2.4 -9 q7 1 6 8 q-2 -4 -6 -3 z"/></g><text x="72" y="268" font-family="-apple-system, 'Segoe UI', Roboto, sans-serif" font-size="14" font-weight="600" fill="#FFFFFF" text-anchor="start">Instant Crush</text><text x="72" y="285" font-family="-apple-system, 'Segoe UI', Roboto, sans-serif" font-size="12" font-weight="400" fill="#A0A0B0" text-anchor="start">Daft Punk</text><circle cx="288" cy="272" r="10.5" fill="none" stroke="#6C6C7C" stroke-width="1.6"/><rect x="16" y="306" width="44" height="44" rx="8" fill="url(#g9)"/><g transform="translate(38 326.24) scale(2)" fill="rgba(255,255,255,0.92)"><ellipse cx="-3" cy="6" rx="4.2" ry="3" transform="rotate(-20 -3 6)"/><rect x="0.6" y="-9" width="1.8" height="15"/><path d="M2.4 -9 q7 1 6 8 q-2 -4 -6 -3 z"/></g><text x="72" y="324" font-family="-apple-system, 'Segoe UI', Roboto, sans-serif" font-size="14" font-weight="600" fill="#FFFFFF" text-anchor="start">The Less I Know</text><text x="72" y="341" font-family="-apple-system, 'Segoe UI', Roboto, sans-serif" font-size="12" font-weight="400" fill="#A0A0B0" text-anchor="start">Tame Impala</text><circle cx="288" cy="328" r="11" fill="#1FD1A0"/><path d="M283 328l3 3 6-6" stroke="#000000" stroke-width="2" fill="none" stroke-linecap="round" stroke-linejoin="round"/><rect x="16" y="362" width="44" height="44" rx="8" fill="url(#g4)"/><g transform="translate(38 382.24) scale(2)" fill="rgba(255,255,255,0.92)"><ellipse cx="-3" cy="6" rx="4.2" ry="3" transform="rotate(-20 -3 6)"/><rect x="0.6" y="-9" width="1.8" height="15"/><path d="M2.4 -9 q7 1 6 8 q-2 -4 -6 -3 z"/></g><text x="72" y="380" font-family="-apple-system, 'Segoe UI', Roboto, sans-serif" font-size="14" font-weight="600" fill="#FFFFFF" text-anchor="start">Nightcall</text><text x="72" y="397" font-family="-apple-system, 'Segoe UI', Roboto, sans-serif" font-size="12" font-weight="400" fill="#A0A0B0" text-anchor="start">Kavinsky</text><circle cx="288" cy="384" r="10.5" fill="none" stroke="#6C6C7C" stroke-width="1.6"/><rect x="16" y="418" width="44" height="44" rx="8" fill="url(#g7)"/><g transform="translate(38 438.24) scale(2)" fill="rgba(255,255,255,0.92)"><ellipse cx="-3" cy="6" rx="4.2" ry="3" transform="rotate(-20 -3 6)"/><rect x="0.6" y="-9" width="1.8" height="15"/><path d="M2.4 -9 q7 1 6 8 q-2 -4 -6 -3 z"/></g><text x="72" y="436" font-family="-apple-system, 'Segoe UI', Roboto, sans-serif" font-size="14" font-weight="600" fill="#FFFFFF" text-anchor="start">Dreams</text><text x="72" y="453" font-family="-apple-system, 'Segoe UI', Roboto, sans-serif" font-size="12" font-weight="400" fill="#A0A0B0" text-anchor="start">Fleetwood Mac</text><circle cx="288" cy="440" r="10.5" fill="none" stroke="#6C6C7C" stroke-width="1.6"/><rect x="0" y="568" width="320" height="92" fill="#0B0B0F"/><rect x="0" y="568" width="320" height="1" fill="#2A2A36"/><rect x="16" y="582" width="288" height="48" rx="24" fill="#1FD1A0"/><g transform="translate(118 598)" fill="none" stroke="#000000" stroke-width="1.7" stroke-linecap="round" stroke-linejoin="round"><circle cx="3" cy="8" r="2.4"/><circle cx="13" cy="3" r="2.4"/><circle cx="13" cy="13" r="2.4"/><path d="M5.1 6.9l5.8-2.8M5.1 9.1l5.8 2.8"/></g><text x="170" y="612" font-family="-apple-system, 'Segoe UI', Roboto, sans-serif" font-size="16" font-weight="800" fill="#000000" text-anchor="middle">Send 3 songs</text></g><rect x="0.6" y="0.6" width="318.8" height="658.8" rx="30" fill="none" stroke="#2A2A36" stroke-width="1.2"/></svg>