<svg xmlns="http://www.w3.org/2000/svg" width="320" height="660" viewBox="0 0 320 660" role="img"><defs><linearGradient id="g0" x1="0" y1="0" x2="1" y2="1"><stop offset="0" stop-color="#6C5CE7"/><stop offset="1" stop-color="#1FD1A0"/></linearGradient><linearGradient id="g1" x1="0" y1="0" x2="1" y2="1"><stop offset="0" stop-color="#FF6B6B"/><stop offset="1" stop-color="#FFA94D"/></linearGradient><linearGradient id="g2" x1="0" y1="0" x2="1" y2="1"><stop offset="0" stop-color="#4DABF7"/><stop offset="1" stop-color="#1864AB"/></linearGradient><linearGradient id="g3" x1="0" y1="0" x2="1" y2="1"><stop offset="0" stop-color="#F783AC"/><stop offset="1" stop-color="#862E9C"/></linearGradient><linearGradient id="g4" x1="0" y1="0" x2="1" y2="1"><stop offset="0" stop-color="#1FD1A0"/><stop offset="1" stop-color="#0CA678"/></linearGradient><linearGradient id="g5" x1="0" y1="0" x2="1" y2="1"><stop offset="0" stop-color="#FFD43B"/><stop offset="1" stop-color="#F08C00"/></linearGradient><linearGradient id="g6" x1="0" y1="0" x2="1" y2="1"><stop offset="0" stop-color="#748FFC"/><stop offset="1" stop-color="#3B5BDB"/></linearGradient><linearGradient id="g7" x1="0" y1="0" x2="1" y2="1"><stop offset="0" stop-color="#FF8787"/><stop offset="1" stop-color="#E03131"/></linearGradient><linearGradient id="g8" x1="0" y1="0" x2="1" y2="1"><stop offset="0" stop-color="#63E6BE"/><stop offset="1" stop-color="#0B7285"/></linearGradient><linearGradient id="g9" x1="0" y1="0" x2="1" y2="1"><stop offset="0" stop-color="#DA77F2"/><stop offset="1" stop-color="#5F3DC4"/></linearGradient><clipPath id="screen"><rect x="0" y="0" width="320" height="660" rx="30"/></clipPath></defs><g clip-path="url(#screen)"><rect x="0" y="0" width="320" height="660" fill="#0B0B0F"/><text x="20" y="30" font-family="-apple-system, 'Segoe UI', Roboto, sans-serif" font-size="13" font-weight="700" fill="#FFFFFF" text-anchor="start">9:41</text><g fill="#FFFFFF" transform="translate(264 22)"><rect x="0" y="2" width="4" height="8" rx="1"/><rect x="6" y="-1" width="4" height="11" rx="1"/><rect x="12" y="-4" width="4" height="14" rx="1"/><rect x="22" y="-3" width="20" height="11" rx="2.5" fill="none" stroke="#FFFFFF" stroke-width="1.4"/><rect x="24" y="-1" width="13" height="7" rx="1.2"/></g><text x="160" y="64" font-family="-apple-system, 'Segoe UI', Roboto, sans-serif" font-size="16" font-weight="700" fill="#FFFFFF" text-anchor="middle">Smart Radio queue</text><g transform="translate(18 52)" fill="#FFFFFF"><path d="M4 8l6-6 1.4 1.4L6.8 8l4.6 4.6L10 14z"/></g><g transform="translate(20 92)"><rect x="0" y="0" width="280" height="56" rx="14" fill="#1E1E28"/><g transform="translate(16 14)" fill="#1FD1A0"><path d="M6 10c-3-2-5-4-5-6a2.4 2.4 0 014.4-1.3A2.4 2.4 0 0110 4c0 2-2 4-4 6z"/></g><text x="40" y="26" font-family="-apple-system, 'Segoe UI', Roboto, sans-serif" font-size="13" font-weight="700" fill="#FFFFFF" text-anchor="start">Smart Radio</text><text x="40" y="43" font-family="-apple-system, 'Segoe UI', Roboto, sans-serif" font-size="11" font-weight="400" fill="#A0A0B0" text-anchor="start">Picking songs that match your taste</text><rect x="242 " y="18" width="42" height="20" rx="10" fill="#6C5CE7"/><text x="263" y="32" font-family="-apple-system, 'Segoe UI', Roboto, sans-serif" font-size="11" font-weight="800" fill="#FFFFFF" text-anchor="middle">ML</text></g><text x="20" y="178" font-family="-apple-system, 'Segoe UI', Roboto, sans-serif" font-size="11" font-weight="700" fill="#A0A0B0" text-anchor="start">UP NEXT</text><rect x="8" y="190" width="304" height="52" rx="12" fill="#1E1E28"/><g transform="translate(26 205)" fill="#1FD1A0"><path d="M0 4h3l4-3v12l-4-3H0z"/><path d="M11 5a4 4 0 010 7" fill="none" stroke="#1FD1A0" stroke-width="1.6"/></g><text x="68" y="213" font-family="-apple-system, 'Segoe UI', Roboto, sans-serif" font-size="13.5" font-weight="600" fill="#1FD1A0" text-anchor="start">Nightcall</text><text x="68" y="230" font-family="-apple-system, 'Segoe UI', Roboto, sans-serif" font-size="11.5" font-weight="400" fill="#A0A0B0" text-anchor="start">Kavinsky</text><g transform="translate(284 208)" fill="#6C6C7C"><rect x="0" y="0" width="16" height="2" rx="1"/><rect x="0" y="6" width="16" height="2" rx="1"/><rect x="0" y="12" width="16" height="2" rx="1"/></g><rect x="16" y="252" width="40" height="40" rx="8" fill="url(#g0)"/><g transform="translate(36 270.4) scale(1.8181818181818181)" fill="rgba(255,255,255,0.92)"><ellipse cx="-3" cy="6" rx="4.2" ry="3" transform="rotate(-20 -3 6)"/><rect x="0.6" y="-9" width="1.8" height="15"/><path d="M2.4 -9 q7 1 6 8 q-2 -4 -6 -3 z"/></g><text x="68" y="269" font-family="-apple-system, 'Segoe UI', Roboto, sans-serif" font-size="13.5" font-weight="600" fill="#FFFFFF" text-anchor="start">Midnight City</text><text x="68" y="286" font-family="-apple-system, 'Segoe UI', Roboto, sans-serif" font-size="11.5" font-weight="400" fill="#A0A0B0" text-anchor="start">M83</text><g transform="translate(284 264)" fill="#6C6C7C"><rect x="0" y="0" width="16" height="2" rx="1"/><rect x="0" y="6" width="16" height="2" rx="1"/><rect x="0" y="12" width="16" height="2" rx="1"/></g><rect x="16" y="308" width="40" height="40" rx="8" fill="url(#g9)"/><g transform="translate(36 326.4) scale(1.8181818181818181)" fill="rgba(255,255,255,0.92)"><ellipse cx="-3" cy="6" rx="4.2" ry="3" transform="rotate(-20 -3 6)"/><rect x="0.6" y="-9" width="1.8" height="15"/><path d="M2.4 -9 q7 1 6 8 q-2 -4 -6 -3 z"/></g><text x="68" y="325" font-family="-apple-system, 'Segoe UI', Roboto, sans-serif" font-size="13.5" font-weight="600" fill="#FFFFFF" text-anchor="start">The Less I Know</text><text x="68" y="342" font-family="-apple-system, 'Segoe UI', Roboto, sans-serif" font-size="11.5" font-weight="400" fill="#A0A0B0" text-anchor="start">Tame Impala</text><g transform="translate(284 320)" fill="#6C6C7C"><rect x="0" y="0" width="16" height="2" rx="1"/><rect x="0" y="6" width="16" height="2" rx="1"/><rect x="0" y="12" width="16" height="2" rx="1"/></g><rect x="16" y="364" width="40" height="40" rx="8" fill="url(#g3)"/><g transform="translate(36 382.4) scale(1.8181818181818181)" fill="rgba(255,255,255,0.92)"><ellipse cx="-3" cy="6" rx="4.2" ry="3" transform="rotate(-20 -3 6)"/><rect x="0.6" y="-9" width="1.8" height="15"/><path d="M2.4 -9 q7 1 6 8 q-2 -4 -6 -3 z"/></g><text x="68" y="381" font-family="-apple-system, 'Segoe UI', Roboto, sans-serif" font-size="13.5" font-weight="600" fill="#FFFFFF" text-anchor="start">Redbone</text><text x="68" y="398" font-family="-apple-system, 'Segoe UI', Roboto, sans-serif" font-size="11.5" font-weight="400" fill="#A0A0B0" text-anchor="start">Childish Gambino</text><g transform="translate(284 376)" fill="#6C6C7C"><rect x="0" y="0" width="16" height="2" rx="1"/><rect x="0" y="6" width="16" height="2" rx="1"/><rect x="0" y="12" width="16" height="2" rx="1"/></g><rect x="16" y="420" width="40" height="40" rx="8" fill="url(#g6)"/><g transform="translate(36 438.4) scale(1.8181818181818181)" fill="rgba(255,255,255,0.92)"><ellipse cx="-3" cy="6" rx="4.2" ry="3" transform="rotate(-20 -3 6)"/><rect x="0.6" y="-9" width="1.8" height="15"/><path d="M2.4 -9 q7 1 6 8 q-2 -4 -6 -3 z"/></g><text x="68" y="437" font-family="-apple-system, 'Segoe UI', Roboto, sans-serif" font-size="13.5" font-weight="600" fill="#FFFFFF" text-anchor="start">Genesis</text><text x="68" y="454" font-family="-apple-system, 'Segoe UI', Roboto, sans-serif" font-size="11.5" font-weight="400" fill="#A0A0B0" text-anchor="start">Grimes</text><g transform="translate(284 432)" fill="#6C6C7C"><rect x="0" y="0" width="16" height="2" rx="1"/><rect x="0" y="6" width="16" height="2" rx="1"/><rect x="0" y="12" width="16" height="2" rx="1"/></g><rect x="16" y="476" width="40" height="40" rx="8" fill="url(#g2)"/><g transform="translate(36 494.4) scale(1.8181818181818181)" fill="rgba(255,255,255,0.92)"><ellipse cx="-3" cy="6" rx="4.2" ry="3" transform="rotate(-20 -3 6)"/><rect x="0.6" y="-9" width="1.8" height="15"/><path d="M2.4 -9 q7 1 6 8 q-2 -4 -6 -3 z"/></g><text x="68" y="493" font-family="-apple-system, 'Segoe UI', Roboto, sans-serif" font-size="13.5" font-weight="600" fill="#FFFFFF" text-anchor="start">Instant Crush</text><text x="68" y="510" font-family="-apple-system, 'Segoe UI', Roboto, sans-serif" font-size="11.5" font-weight="400" fill="#A0A0B0" text-anchor="start">Daft Punk</text><g transform="translate(284 488)" fill="#6C6C7C"><rect x="0" y="0" width="16" height="2" rx="1"/><rect x="0" y="6" width="16" height="2" rx="1"/><rect x="0" y="12" width="16" height="2" rx="1"/></g></g><rect x="0.6" y="0.6" width="318.8" height="658.8" rx="30" fill="none" stroke="#2A2A36" stroke-width="1.2"/></svg>